<?xml version="1.0" encoding="UTF-8"?>
<svg xmlns="http://www.w3.org/2000/svg" xmlns:xlink="http://www.w3.org/1999/xlink" width="16px" height="16px" viewBox="0 0 16 16" version="1.1">
<g id="surface1">
<path style=" stroke:none;fill-rule:nonzero;fill:rgb(93.72549%,80.784314%,29.019608%);fill-opacity:1;" d="M 12.777344 14.484375 L 0.433594 14.484375 C 0.148438 14.484375 -0.0585938 14.214844 0.015625 13.9375 L 2.820312 6.25 C 2.871094 6.0625 3.042969 5.929688 3.234375 5.929688 L 15.582031 5.929688 C 15.867188 5.929688 16 6.203125 16 6.476562 L 13.195312 14.164062 C 13.144531 14.351562 12.972656 14.484375 12.777344 14.484375 Z M 12.777344 14.484375 "/>
<path style=" stroke:none;fill-rule:nonzero;fill:rgb(92.156863%,72.941176%,8.627451%);fill-opacity:1;" d="M 13.867188 3.449219 L 6.898438 3.449219 L 5.515625 1.515625 L 0.476562 1.515625 C 0.214844 1.515625 0 1.730469 0 1.996094 L 0 13.78125 C 0.0195312 13.78125 0.0390625 13.785156 0.0546875 13.785156 L 2.820312 6.25 C 2.871094 6.0625 3.039062 5.929688 3.234375 5.929688 L 14.34375 5.929688 L 14.34375 3.925781 C 14.34375 3.660156 14.128906 3.449219 13.867188 3.449219 Z M 13.867188 3.449219 "/>
</g>
</svg>
